<svg xmlns="http://www.w3.org/2000/svg" viewBox="0 0 100 100" width="100" height="100">
  <defs>
    <linearGradient id="g" x1="0" y1="0" x2="1" y2="1">
      <stop offset="0" stop-color="#FFD99C"/>
      <stop offset="1" stop-color="#F5A068"/>
    </linearGradient>
  </defs>
  <rect width="100" height="100" rx="22" fill="url(#g)"/>
  <g transform="translate(50,53)" fill="#F79EBE">
    <path d="M0,2 C-14,-6 -18,-24 -8,-36 L0,-28 L8,-36 C18,-24 14,-6 0,2 Z"/>
    <path transform="rotate(72)"  d="M0,2 C-14,-6 -18,-24 -8,-36 L0,-28 L8,-36 C18,-24 14,-6 0,2 Z"/>
    <path transform="rotate(144)" d="M0,2 C-14,-6 -18,-24 -8,-36 L0,-28 L8,-36 C18,-24 14,-6 0,2 Z"/>
    <path transform="rotate(216)" d="M0,2 C-14,-6 -18,-24 -8,-36 L0,-28 L8,-36 C18,-24 14,-6 0,2 Z"/>
    <path transform="rotate(288)" d="M0,2 C-14,-6 -18,-24 -8,-36 L0,-28 L8,-36 C18,-24 14,-6 0,2 Z"/>
  </g>
  <circle cx="50" cy="53" r="7.5" fill="#EE9B46"/>
</svg>
